<svg width="95" height="73" xmlns="http://www.w3.org/2000/svg">
  <g stroke="#FFF" fill="none" fill-rule="evenodd">
    <path d="M77.097 1s-1.807 4.065-.783 7.919c.998 3.744 3.707 6.307 4.44 6.065a.308.308 0 0 0 .06-.026c.631-.417 1.807-4.066.782-7.919C80.57 3.185 77.097 1 77.097 1M74 15s.203 4.02 2.935 6.437c2.38 2.106 5.594 2.785 6.642 2.502.156-.042.264-.105.314-.187.393-.638-.205-4.019-2.936-6.436C78.225 14.9 74 15.001 74 15.001M88.49 9s-3.44 2.434-4.246 6.299c-.805 3.865.575 7.694 1.328 7.701.05 0 .107-.01.172-.03.923-.288 3.322-2.654 4.075-6.268.804-3.868-1.33-7.702-1.33-7.702M77.024 24s-.367 3.944 1.776 6.663c1.947 2.471 4.928 3.552 5.79 3.302a.372.372 0 0 0 .193-.117c.444-.57.366-3.943-1.777-6.662C80.863 24.465 77.024 24 77.024 24M92.244 20s-3.431 1.814-4.629 5.401c-1.197 3.59-.395 7.473.292 7.593a.71.71 0 0 0 .333-.046c.994-.325 3.242-2.199 4.294-5.353 1.197-3.59-.29-7.595-.29-7.595M77.468 32s-1.169 4.232.188 7.8c1.29 3.397 3.93 5.427 4.632 5.18a.251.251 0 0 0 .092-.056c.52-.506 1.169-4.232-.189-7.8C80.835 33.553 77.468 32 77.468 32M93.322 34.145c-1.185.34-3.943 1.348-5.532 3.678-2.063 3.024-2.073 6.843-1.371 7.132.2.083.616.053 1.154-.102 1.349-.388 3.472-1.558 4.945-3.72 2.063-3.025 1.37-7.133 1.37-7.133s-.213.044-.566.145M75.453 41s-2.73 3.375-2.43 7.238c.298 3.853 2.752 6.972 3.51 6.75h.004c.752-.239 2.731-3.376 2.433-7.238-.3-3.863-3.517-6.75-3.517-6.75M84.267 49.407a7.879 7.879 0 0 0-2.345 1.085c-3.004 2.083-4.357 5.643-3.799 6.165.382.358 2.161.558 4.21-.028A9.693 9.693 0 0 0 85.2 55.28c3.003-2.08 3.8-6.165 3.8-6.165s-2.31-.4-4.733.292M70.648 49s-3.455 2.346-4.344 6.211c-.89 3.866.382 7.76 1.126 7.789a.557.557 0 0 0 .194-.033c.939-.298 3.327-2.6 4.15-6.18.888-3.865-1.126-7.787-1.126-7.787M75.122 59.274c-3.831.96-6.476 3.758-6.083 4.405.393.652 3.976 1.932 7.831.982l.035-.009C80.738 63.691 83 60.243 83 60.243s-3.976-1.93-7.833-.98l-.045.011M63.255 56.164c-1.222.355-3.88 1.354-5.438 3.629-2.07 3.024-2.106 6.862-1.413 7.16.203.086.631.056 1.188-.106 1.343-.391 3.431-1.55 4.895-3.687 2.071-3.025 1.414-7.16 1.414-7.16s-.245.047-.646.164M60.298 66.42c-1.99.547-3.362 1.49-3.296 1.981.106.777 2.862 3.237 6.727 3.57 1.097.095 2.157-.055 3.112-.317C69.253 70.992 71 69.608 71 69.608s-2.86-3.237-6.727-3.57a11.433 11.433 0 0 0-3.975.383M18.903 1s-3.473 2.185-4.5 6.039c-1.024 3.853.152 7.502.784 7.919.018.01.039.02.059.026.733.242 3.442-2.321 4.44-6.065C20.71 5.065 18.903 1 18.903 1M22 15s-4.225-.101-6.955 2.316c-2.731 2.417-3.329 5.798-2.936 6.436.05.082.158.145.314.187 1.048.283 4.262-.396 6.642-2.502C21.797 19.02 22 15 22 15M5.51 9s-2.133 3.834-1.329 7.702c.753 3.614 3.152 5.98 4.075 6.268.065.02.122.03.172.03.753-.007 2.133-3.836 1.328-7.701C8.95 11.434 5.51 9 5.51 9M17.976 24s-3.839.465-5.982 3.186c-2.143 2.719-2.22 6.091-1.777 6.662.04.052.106.091.193.117.862.25 3.843-.83 5.79-3.302C18.343 27.944 17.976 24 17.976 24M1.756 20s-1.487 4.005-.29 7.595c1.052 3.154 3.3 5.028 4.294 5.353.138.046.25.061.333.046.687-.12 1.49-4.003.292-7.593C5.187 21.814 1.756 20 1.756 20"/>
    <path d="M15.532 32s-3.367 1.553-4.723 5.123c-1.358 3.569-.71 7.295-.189 7.8a.251.251 0 0 0 .092.057c.702.247 3.341-1.783 4.632-5.18 1.357-3.568.188-7.8.188-7.8M1.678 34.145A8.746 8.746 0 0 0 1.112 34s-.693 4.108 1.37 7.133c1.473 2.162 3.596 3.332 4.945 3.72.538.155.954.185 1.154.102.702-.29.692-4.108-1.371-7.132-1.59-2.33-4.347-3.338-5.532-3.678M18.547 41s-3.216 2.887-3.517 6.75c-.298 3.862 1.681 7 2.433 7.237l.004.002c.758.221 3.212-2.898 3.51-6.751.3-3.863-2.43-7.238-2.43-7.238M9.733 49.407C7.31 48.715 5 49.115 5 49.115s.797 4.084 3.8 6.165a9.693 9.693 0 0 0 2.866 1.35c2.05.585 3.829.385 4.211.027.558-.522-.795-4.082-3.8-6.165a7.879 7.879 0 0 0-2.344-1.085M24.352 49s-2.014 3.922-1.126 7.788c.823 3.58 3.211 5.881 4.15 6.18a.557.557 0 0 0 .194.032c.744-.029 2.015-3.923 1.126-7.789-.89-3.865-4.344-6.211-4.344-6.211M19.878 59.274l-.045-.011c-3.857-.95-7.833.98-7.833.98s2.262 3.448 6.095 4.41l.035.008c3.855.95 7.438-.33 7.831-.982.393-.647-2.252-3.446-6.083-4.405M31.745 56.164c-.4-.117-.646-.164-.646-.164s-.657 4.135 1.414 7.16c1.464 2.138 3.552 3.296 4.895 3.687.557.162.985.192 1.188.106.693-.298.657-4.136-1.413-7.16-1.557-2.275-4.216-3.274-5.438-3.63M34.702 66.42a11.433 11.433 0 0 0-3.975-.381C26.861 66.37 24 69.608 24 69.608s1.747 1.384 4.159 2.046c.955.262 2.015.412 3.112.317 3.865-.333 6.621-2.793 6.727-3.57.066-.49-1.305-1.434-3.296-1.98"/>
  </g>
</svg>
